<?xml version="1.0" encoding="UTF-8" standalone="no"?>
<svg
   viewBox="0 0 400 600"
   width="400"
   height="600"
   version="1.1"
   id="svg1"
   sodipodi:docname="female13.svg"
   inkscape:version="1.4.3 (0d15f75, 2025-12-25)"
   xmlns:inkscape="http://www.inkscape.org/namespaces/inkscape"
   xmlns:sodipodi="http://sodipodi.sourceforge.net/DTD/sodipodi-0.dtd"
   xmlns="http://www.w3.org/2000/svg"
   xmlns:svg="http://www.w3.org/2000/svg">
  <defs
     id="defs1" />
  <sodipodi:namedview
     id="namedview1"
     pagecolor="#ffffff"
     bordercolor="#000000"
     borderopacity="0.25"
     inkscape:showpageshadow="2"
     inkscape:pageopacity="0.0"
     inkscape:pagecheckerboard="0"
     inkscape:deskcolor="#d1d1d1"
     inkscape:zoom="1.425"
     inkscape:cx="200"
     inkscape:cy="300"
     inkscape:window-width="1920"
     inkscape:window-height="1057"
     inkscape:window-x="-8"
     inkscape:window-y="-8"
     inkscape:window-maximized="1"
     inkscape:current-layer="svg1" />
  <path
     id="path9"
     style="stroke-width:0.657642"
     d="m 233.87547,28.844087 c -2.47827,-0.07635 -4.95538,0.07544 -7.43361,0.380859 -10.38932,0.995792 -20.77901,5.240013 -28.8672,11.406248 -7.01337,-4.101971 -15.12,-6.855814 -23.22656,-7.632813 -4.95651,-0.610806 -9.91264,-0.61223 -14.86912,0.609377 -4.95651,1.221611 -9.91385,3.66525 -12.74611,7.330076 -4.95651,4.886435 -6.37304,10.995478 -6.37304,17.103519 L 118.4106,48.267915 C 104.2492,42.770675 88.67176,39.717134 73.09421,39.717134 64.59738,40.32794 55.3917,42.160255 48.31098,46.435883 41.93836,50.10071 36.98287,56.818597 36.98287,63.537444 c 0,4.886438 2.83181,9.773201 5.66408,14.048829 6.37262,9.162063 15.57724,17.102911 25.49023,23.210957 -2.90057,1.94608 -5.35994,4.39797 -7.1133,7.18356 -9.83592,6.74351 -18.51689,14.83854 -25.05273,23.8594 A 187.6386,161.86316 0 0 0 9.7719298,206.3597 c 0,13.43769 -3.7e-4,26.26295 4.2480502,39.08984 l 6.37305,14.66018 c 1.41614,1.22158 2.12383,3.05469 4.24805,3.05469 a 145.86246,125.8257 0 0 0 37.52735,9.77148 c 7.08072,1.22158 14.16242,2.44335 21.95116,2.44335 -2.12421,-2.4432 -5.66574,-4.27499 -8.49804,-6.10741 -0.70806,-6.71883 -3.53896,-12.8261 -4.95508,-19.54492 -2.8323,-10.38369 -3.54024,-21.37856 -1.41603,-32.37306 2.1242,-6.71886 5.66369,-14.0482 9.91211,-20.15626 2.83226,-3.66481 5.66487,-6.10911 7.78908,-10.38474 2.1242,-3.05405 7.9e-4,-7.32933 2.125,-10.99415 3.54036,-7.94045 12.03636,-14.65992 20.53319,-18.93555 8.15104,-4.32699 17.41217,-7.69595 26.80078,-10.53124 1.69723,0.98585 3.48272,1.8864 5.36719,2.69919 9.20493,4.27563 19.11723,6.71769 29.73827,5.49611 11.97302,-1.82264 22.54401,-6.66655 31.71485,-13.33009 7.78424,4.70926 16.46581,8.1007 26.04299,9.55862 9.13772,1.05101 17.75032,-0.61096 25.83983,-3.81839 l 5.61914,2.09375 c 10.62104,3.05401 21.24238,6.71902 30.44727,11.60549 8.49687,4.27563 16.99283,10.99314 20.53319,18.93358 2.12421,3.66486 7.9e-4,7.94015 2.125,10.99416 2.12421,4.27563 4.95678,6.71988 7.78908,10.38474 4.24841,6.10802 7.7879,13.43743 9.91211,20.15626 2.12421,10.99449 1.41623,21.98937 -1.41604,32.37305 -1.41615,6.71887 -4.2489,12.82606 -4.957,19.54492 -2.83226,1.83239 -6.3719,3.66618 -8.49611,6.10938 7.78877,0 14.86855,-1.22173 21.94923,-2.44335 a 145.86246,125.8257 0 0 0 37.52931,-9.77344 c 2.12421,0 2.83192,-1.83307 4.24804,-3.05469 l 6.37304,-14.65822 c 4.24845,-12.82688 4.24803,-25.65407 4.24803,-39.09177 a 187.6386,161.86316 0 0 0 -26.19919,-74.51758 c -5.8913,-8.1312 -13.52591,-15.5111 -22.17774,-21.8262 0.0113,-6.71581 -4.07127,-12.79178 -9.98831,-16.761705 9.91298,-6.108041 19.11761,-14.04887 25.49027,-23.210936 2.83226,-4.275629 5.66404,-9.162396 5.66404,-14.04883 0,-6.718851 -4.95742,-13.436734 -11.33008,-17.101561 -7.08068,-4.275628 -16.2844,-6.109897 -24.78123,-6.720703 -15.57755,0 -31.15502,3.055495 -45.31642,8.552735 l -21.95116,9.771485 c 0,-6.108046 -1.41464,-12.215127 -6.37111,-17.101565 -2.83227,-3.664827 -7.78961,-6.108469 -12.74608,-7.330077 -2.47827,-0.610805 -4.9573,-0.915836 -7.43554,-0.992186 z M 52.96335,272.93589 c -2.1242,0 -4.24697,0.002 -4.95507,1.83398 -0.70806,1.83242 1.41585,3.05325 2.832,3.66406 4.95647,3.05401 11.32959,4.88579 16.99416,6.10741 5.66456,1.22162 12.03556,2.44479 18.40818,1.83398 l -1.416,-2.44335 c -3.54035,-3.05401 -8.49569,-5.49713 -12.74415,-6.71875 -6.37262,-1.83243 -12.74649,-3.66656 -19.11912,-4.27733 z m 294.86132,3.77344 c -6.37262,0.61081 -12.74452,2.44294 -19.11719,4.27536 -4.24841,1.22162 -9.20572,3.66471 -12.74608,6.71876 l -1.41603,2.44339 c 6.37262,0.61081 12.74562,-0.61044 18.41015,-1.83205 5.66457,-1.22159 12.03765,-3.05537 16.99416,-6.10938 1.41615,-0.61081 3.54013,-1.83164 2.83203,-3.66407 -0.70805,-1.83239 -2.83283,-1.83201 -4.95704,-1.83201 z"
     inkscape:label="hair" />
</svg>
